# xmcd
#
# Track frame offsets:
#	150
#	22905
#	43550
#	61658
#	84783
#	105138
#	125148
#	147825
#
# Disc length: 2343 seconds
#
# Revision: 0
# Processed by: cddbd v1.4PL0 Copyright (c) Steve Scherf et al.
# Submitted via: dBpowerAMP V4.0
#
DISCID=55092508
DTITLE=Pankaj Udhas - Humnasheen
DYEAR=1900
DGENRE=Easy Listening
TTITLE0=Hansta Chehra
TTITLE1=Gore Gaal Pe Kala Til
TTITLE2=Ek Husne Benaqab
TTITLE3=Zulf Ghata
TTITLE4=Sach Bolta Hoon Main
TTITLE5=Aankhen Hain Ya Jaame Sharaab
TTITLE6=Zindagi Jaam Se
TTITLE7=Salaam Kare
EXTD=
EXTT0=
EXTT1=
EXTT2=
EXTT3=
EXTT4=
EXTT5=
EXTT6=
EXTT7=
PLAYORDER=
